<svg xmlns="http://www.w3.org/2000/svg" width="812" height="380" viewBox="0 0 812 380">
<style>text{font-family:-apple-system,'PingFang SC','Microsoft YaHei','Segoe UI',sans-serif;}</style>
<rect width="812" height="380" fill="#ffffff"/>
<text x="20" y="26" font-size="15" font-weight="700" fill="#1c1c1e">Qualifying line: combined means of 31 candidates (R03–R12; R13/R14 increments in the box plot)</text>
<line x1="70" y1="290.0" x2="782" y2="290.0" stroke="#e4e4e7" stroke-width="1"/>
<text x="62" y="294.0" font-size="11" fill="#5f6368" text-anchor="end" font-weight="400">0.38</text>
<line x1="70" y1="235.0" x2="782" y2="235.0" stroke="#e4e4e7" stroke-width="1"/>
<text x="62" y="239.0" font-size="11" fill="#5f6368" text-anchor="end" font-weight="400">0.42</text>
<line x1="70" y1="180.0" x2="782" y2="180.0" stroke="#e4e4e7" stroke-width="1"/>
<text x="62" y="184.0" font-size="11" fill="#5f6368" text-anchor="end" font-weight="400">0.46</text>
<line x1="70" y1="125.0" x2="782" y2="125.0" stroke="#e4e4e7" stroke-width="1"/>
<text x="62" y="129.0" font-size="11" fill="#5f6368" text-anchor="end" font-weight="400">0.49</text>
<line x1="70" y1="70.0" x2="782" y2="70.0" stroke="#e4e4e7" stroke-width="1"/>
<text x="62" y="74.0" font-size="11" fill="#5f6368" text-anchor="end" font-weight="400">0.53</text>
<rect x="74.36387096774193" y="139" width="14.24" height="151" fill="#d40000" rx="2"/>
<text x="81.5" y="308" font-size="10.5" fill="#d40000" text-anchor="end" font-weight="700" transform="rotate(-90 81.5 304.0)">#31</text>
<rect x="97.3316129032258" y="160" width="14.24" height="130" fill="#d40000" rx="2"/>
<text x="104.5" y="308" font-size="10.5" fill="#d40000" text-anchor="end" font-weight="700" transform="rotate(-90 104.5 304.0)">#30</text>
<rect x="120.29935483870968" y="179" width="14.24" height="111" fill="#9aa4b2" rx="2"/>
<text x="127.4" y="308" font-size="10.5" fill="#1c1c1e" text-anchor="end" font-weight="400" transform="rotate(-90 127.4 304.0)">#15</text>
<rect x="143.26709677419353" y="188" width="14.24" height="102" fill="#9aa4b2" rx="2"/>
<text x="150.4" y="308" font-size="10.5" fill="#1c1c1e" text-anchor="end" font-weight="400" transform="rotate(-90 150.4 304.0)">#9</text>
<rect x="166.23483870967743" y="189" width="14.24" height="101" fill="#9aa4b2" rx="2"/>
<text x="173.4" y="308" font-size="10.5" fill="#1c1c1e" text-anchor="end" font-weight="400" transform="rotate(-90 173.4 304.0)">#13</text>
<rect x="189.20258064516128" y="194" width="14.24" height="96" fill="#9aa4b2" rx="2"/>
<text x="196.3" y="308" font-size="10.5" fill="#1c1c1e" text-anchor="end" font-weight="400" transform="rotate(-90 196.3 304.0)">#11</text>
<rect x="212.17032258064518" y="199" width="14.24" height="91" fill="#9aa4b2" rx="2"/>
<text x="219.3" y="308" font-size="10.5" fill="#1c1c1e" text-anchor="end" font-weight="400" transform="rotate(-90 219.3 304.0)">#7</text>
<rect x="235.13806451612902" y="203" width="14.24" height="87" fill="#9aa4b2" rx="2"/>
<text x="242.3" y="308" font-size="10.5" fill="#1c1c1e" text-anchor="end" font-weight="400" transform="rotate(-90 242.3 304.0)">#14</text>
<rect x="258.1058064516129" y="203" width="14.24" height="87" fill="#9aa4b2" rx="2"/>
<text x="265.2" y="308" font-size="10.5" fill="#1c1c1e" text-anchor="end" font-weight="400" transform="rotate(-90 265.2 304.0)">#8</text>
<rect x="281.07354838709676" y="216" width="14.24" height="74" fill="#9aa4b2" rx="2"/>
<text x="288.2" y="308" font-size="10.5" fill="#1c1c1e" text-anchor="end" font-weight="400" transform="rotate(-90 288.2 304.0)">#10</text>
<rect x="304.04129032258066" y="216" width="14.24" height="74" fill="#9aa4b2" rx="2"/>
<text x="311.2" y="308" font-size="10.5" fill="#1c1c1e" text-anchor="end" font-weight="400" transform="rotate(-90 311.2 304.0)">#18</text>
<rect x="327.0090322580645" y="217" width="14.24" height="73" fill="#9aa4b2" rx="2"/>
<text x="334.1" y="308" font-size="10.5" fill="#1c1c1e" text-anchor="end" font-weight="400" transform="rotate(-90 334.1 304.0)">#12</text>
<rect x="349.9767741935484" y="218" width="14.24" height="72" fill="#9aa4b2" rx="2"/>
<text x="357.1" y="308" font-size="10.5" fill="#1c1c1e" text-anchor="end" font-weight="400" transform="rotate(-90 357.1 304.0)">#25</text>
<rect x="372.94451612903225" y="220" width="14.24" height="70" fill="#9aa4b2" rx="2"/>
<text x="380.1" y="308" font-size="10.5" fill="#1c1c1e" text-anchor="end" font-weight="400" transform="rotate(-90 380.1 304.0)">#26</text>
<rect x="395.91225806451615" y="223" width="14.24" height="67" fill="#9aa4b2" rx="2"/>
<text x="403.0" y="308" font-size="10.5" fill="#1c1c1e" text-anchor="end" font-weight="400" transform="rotate(-90 403.0 304.0)">#5</text>
<rect x="418.88" y="225" width="14.24" height="65" fill="#9aa4b2" rx="2"/>
<text x="426.0" y="308" font-size="10.5" fill="#1c1c1e" text-anchor="end" font-weight="400" transform="rotate(-90 426.0 304.0)">#20</text>
<rect x="441.8477419354839" y="229" width="14.24" height="61" fill="#9aa4b2" rx="2"/>
<text x="449.0" y="308" font-size="10.5" fill="#1c1c1e" text-anchor="end" font-weight="400" transform="rotate(-90 449.0 304.0)">#6</text>
<rect x="464.81548387096774" y="231" width="14.24" height="59" fill="#9aa4b2" rx="2"/>
<text x="471.9" y="308" font-size="10.5" fill="#1c1c1e" text-anchor="end" font-weight="400" transform="rotate(-90 471.9 304.0)">#19</text>
<rect x="487.78322580645164" y="232" width="14.24" height="58" fill="#9aa4b2" rx="2"/>
<text x="494.9" y="308" font-size="10.5" fill="#1c1c1e" text-anchor="end" font-weight="400" transform="rotate(-90 494.9 304.0)">#21</text>
<rect x="510.7509677419355" y="233" width="14.24" height="57" fill="#9aa4b2" rx="2"/>
<text x="517.9" y="308" font-size="10.5" fill="#1c1c1e" text-anchor="end" font-weight="400" transform="rotate(-90 517.9 304.0)">#2</text>
<rect x="533.7187096774194" y="237" width="14.24" height="53" fill="#9aa4b2" rx="2"/>
<text x="540.8" y="308" font-size="10.5" fill="#1c1c1e" text-anchor="end" font-weight="400" transform="rotate(-90 540.8 304.0)">#22</text>
<rect x="556.6864516129032" y="239" width="14.24" height="51" fill="#9aa4b2" rx="2"/>
<text x="563.8" y="308" font-size="10.5" fill="#1c1c1e" text-anchor="end" font-weight="400" transform="rotate(-90 563.8 304.0)">#17</text>
<rect x="579.6541935483871" y="240" width="14.24" height="50" fill="#9aa4b2" rx="2"/>
<text x="586.8" y="308" font-size="10.5" fill="#1c1c1e" text-anchor="end" font-weight="400" transform="rotate(-90 586.8 304.0)">#4</text>
<rect x="602.621935483871" y="247" width="14.24" height="43" fill="#9aa4b2" rx="2"/>
<text x="609.7" y="308" font-size="10.5" fill="#1c1c1e" text-anchor="end" font-weight="400" transform="rotate(-90 609.7 304.0)">#3</text>
<rect x="625.5896774193549" y="251" width="14.24" height="39" fill="#9aa4b2" rx="2"/>
<text x="632.7" y="308" font-size="10.5" fill="#1c1c1e" text-anchor="end" font-weight="400" transform="rotate(-90 632.7 304.0)">#16</text>
<rect x="648.5574193548388" y="255" width="14.24" height="35" fill="#9aa4b2" rx="2"/>
<text x="655.7" y="308" font-size="10.5" fill="#1c1c1e" text-anchor="end" font-weight="400" transform="rotate(-90 655.7 304.0)">#27</text>
<rect x="671.5251612903226" y="255" width="14.24" height="35" fill="#9aa4b2" rx="2"/>
<text x="678.6" y="308" font-size="10.5" fill="#1c1c1e" text-anchor="end" font-weight="400" transform="rotate(-90 678.6 304.0)">#1</text>
<rect x="694.4929032258065" y="258" width="14.24" height="32" fill="#9aa4b2" rx="2"/>
<text x="701.6" y="308" font-size="10.5" fill="#1c1c1e" text-anchor="end" font-weight="400" transform="rotate(-90 701.6 304.0)">#24</text>
<rect x="717.4606451612904" y="260" width="14.24" height="30" fill="#9aa4b2" rx="2"/>
<text x="724.6" y="308" font-size="10.5" fill="#1c1c1e" text-anchor="end" font-weight="400" transform="rotate(-90 724.6 304.0)">#23</text>
<rect x="740.4283870967743" y="282" width="14.24" height="8" fill="#9aa4b2" rx="2"/>
<text x="747.5" y="308" font-size="10.5" fill="#1c1c1e" text-anchor="end" font-weight="400" transform="rotate(-90 747.5 304.0)">#28</text>
<rect x="763.396129032258" y="289" width="14.24" height="1" fill="#9aa4b2" rx="2"/>
<text x="770.5" y="308" font-size="10.5" fill="#1c1c1e" text-anchor="end" font-weight="400" transform="rotate(-90 770.5 304.0)">#29</text>
<text x="70" y="342" font-size="11.5" fill="#5f6368" text-anchor="start" font-weight="400">Sorted by combined mean; #30 and #31 (red) are the two final ensembles.</text>
<text x="70" y="358" font-size="11.5" fill="#5f6368" text-anchor="start" font-weight="400">For the nine-round candidates (#10–#13, #30, #31), R12 was unscoreable due to the mid-season line-up change.</text>
</svg>